<svg width="20" height="20" viewBox="0 0 20 20" fill="none" xmlns="http://www.w3.org/2000/svg">
<path d="M16.6667 3.33337H3.33335C2.41669 3.33337 1.67502 4.08337 1.67502 5.00004L1.66669 15C1.66669 15.9167 2.41669 16.6667 3.33335 16.6667H16.6667C17.5834 16.6667 18.3334 15.9167 18.3334 15V5.00004C18.3334 4.08337 17.5834 3.33337 16.6667 3.33337ZM15.8334 15H4.16669C3.70835 15 3.33335 14.625 3.33335 14.1667V6.66671L9.11669 10.2834C9.65835 10.625 10.3417 10.625 10.8834 10.2834L16.6667 6.66671V14.1667C16.6667 14.625 16.2917 15 15.8334 15ZM10 9.16671L3.33335 5.00004H16.6667L10 9.16671Z" fill="white"/>
</svg>
