<svg width="100" height="66" viewBox="0 0 100 66" fill="none" xmlns="http://www.w3.org/2000/svg">
<g clip-path="url(#clip0_54_1013)">
<path opacity="0.3" d="M93.9603 9.28857H9.00849C6.08353 9.28857 3.68872 11.6651 3.68872 14.6083V49.653C3.68872 52.578 6.06525 54.9728 9.00849 54.9728H75.8804C78.586 58.757 83.4853 65.5209 83.9241 65.5209C84.3262 65.5209 83.5402 59.1409 82.9917 54.9728H93.9421C96.867 54.9728 99.2618 52.5963 99.2618 49.653V14.6083C99.2618 11.6651 96.8853 9.28857 93.9603 9.28857Z" fill="#DAEEF7"/>
<path d="M90.4506 0.203125H5.51704C2.5738 0.203125 0.197266 2.57966 0.197266 5.5229V40.5676C0.197266 43.4926 2.5738 45.8874 5.51704 45.8874H72.389C75.0946 49.6715 79.9939 56.4355 80.4326 56.4355C80.8348 56.4355 80.0487 50.0554 79.5003 45.8874H90.4506C93.3756 45.8874 95.7704 43.5108 95.7704 40.5676V5.5229C95.7521 2.57966 93.3756 0.203125 90.4506 0.203125Z" fill="#FF5B7E"/>
<path d="M23.5606 35.3165C30.3505 32.4748 33.5541 24.6744 30.7162 17.8939C27.8784 11.1134 20.0736 7.92044 13.2838 10.7622C6.49397 13.604 3.2903 21.4044 6.12819 28.1849C8.96607 34.9654 16.7708 38.1583 23.5606 35.3165Z" fill="white"/>
<path d="M11.4948 23.3833C11.4948 23.3833 10.1785 17.9722 13.3229 15.943C16.4672 13.9138 19.8309 13.4568 22.116 14.6267C25.2969 16.2537 26.6132 20.6229 25.5894 23.0543L17.1436 20.9337L11.4948 23.3833Z" fill="#040744"/>
<path d="M20.5449 29.7456H16.6318V33.6586H20.5449V29.7456Z" fill="#FFC0BB"/>
<path d="M20.5266 32.0861V29.7456H16.6318V31.7387C17.473 32.1958 18.7164 32.4518 20.5266 32.0861Z" fill="#F99893"/>
<path d="M26.7048 22.7619C26.3026 22.5609 25.8273 22.5974 25.3885 22.8168C25.5348 18.9595 22.3904 15.7238 18.4235 15.87C14.4565 15.742 11.3122 18.9778 11.4584 22.8168C11.0379 22.5974 10.5626 22.5609 10.1422 22.7619C9.35608 23.1458 9.11843 24.261 9.59374 25.2299C10.069 26.1988 11.1111 26.6924 11.8789 26.3085C11.9885 26.2536 12.08 26.1805 12.1714 26.1074C12.6284 29.2883 15.2791 31.6831 18.4052 31.6282C21.5312 31.6648 24.182 29.2883 24.639 26.1074C24.7304 26.1805 24.8218 26.2536 24.9315 26.3085C25.7176 26.6924 26.7413 26.2171 27.2166 25.2299C27.7285 24.261 27.4908 23.1458 26.7048 22.7619Z" fill="#FFC0BB"/>
<path d="M20.9824 27.3145C20.8179 28.0823 19.9221 28.6855 18.8436 28.7221C17.765 28.7587 16.8327 28.2102 16.6133 27.4424L20.9824 27.3145Z" fill="white"/>
<path d="M11.4584 22.817C11.4584 22.817 16.577 21.2631 18.8073 18.6855C18.8073 18.6855 18.1675 21.8116 17.6922 22.3052C17.8384 22.3966 22.8109 19.9835 23.469 17.7715C24.1454 15.5412 18.3869 14.7368 18.3869 14.7368C18.3869 14.7368 16.4491 15.5595 16.3577 15.6143C16.2663 15.6691 14.4199 15.8885 14.2005 16.3455C13.9263 16.9671 12.6283 17.0219 12.6283 17.0219L11.8057 18.7404L11.2207 20.5502L11.4584 22.817Z" fill="#040744"/>
<path d="M7.27173 15.7605C8.40527 16.2176 9.70335 16.4187 11.0563 16.0165C14.0364 15.1023 15.2248 15.4497 15.627 15.6874C15.8647 15.8154 16.1572 15.8702 16.4132 15.7971C16.7057 15.7057 16.9799 15.4314 16.8885 14.755C16.8885 14.755 16.9982 11.9211 14.5666 10.2939C11.5499 11.2081 8.97203 13.1644 7.27173 15.7605Z" fill="#040744"/>
<path d="M13.7068 15.5777C13.6154 15.468 13.652 15.2852 13.7617 15.212C14.2554 14.8829 15.5354 14.1515 17.0896 14.0601C17.2359 14.0601 17.3639 14.1698 17.3639 14.3161C17.3639 14.444 17.2542 14.5538 17.1262 14.572C15.7182 14.6452 14.5114 15.34 14.0543 15.6326C13.9263 15.7057 13.78 15.6874 13.7068 15.5777Z" fill="#FEB546"/>
<path d="M51.6578 13.8774H34.8575C34.565 13.8774 34.3274 13.6397 34.3274 13.3472V12.0858C34.3274 11.7933 34.565 11.5557 34.8575 11.5557H51.6578C51.9503 11.5557 52.1879 11.7933 52.1879 12.0858V13.3655C52.1879 13.6397 51.9503 13.8774 51.6578 13.8774Z" fill="white"/>
<path d="M45.8627 19.9833H34.8575C34.565 19.9833 34.3274 19.7457 34.3274 19.4532V18.1918C34.3274 17.8993 34.565 17.6616 34.8575 17.6616H45.8627C46.1552 17.6616 46.3929 17.8993 46.3929 18.1918V19.4532C46.3929 19.7457 46.1552 19.9833 45.8627 19.9833Z" fill="white"/>
<path d="M62.7728 19.9833H48.9889C48.6964 19.9833 48.4587 19.7457 48.4587 19.4532V18.1918C48.4587 17.8993 48.6964 17.6616 48.9889 17.6616H62.7728C63.0653 17.6616 63.3029 17.8993 63.3029 18.1918V19.4532C63.3029 19.7457 63.0653 19.9833 62.7728 19.9833Z" fill="white"/>
<path d="M84.8382 13.8774H55.6617C55.3692 13.8774 55.1316 13.6397 55.1316 13.3472V12.0858C55.1316 11.7933 55.3692 11.5557 55.6617 11.5557H84.8382C85.1307 11.5557 85.3684 11.7933 85.3684 12.0858V13.3655C85.3684 13.6397 85.1307 13.8774 84.8382 13.8774Z" fill="white"/>
<path d="M84.8378 31.9574H34.8575C34.565 31.9574 34.3274 31.7198 34.3274 31.4273V30.1659C34.3274 29.8734 34.565 29.6357 34.8575 29.6357H84.8378C85.1303 29.6357 85.368 29.8734 85.368 30.1659V31.4273C85.368 31.7198 85.1303 31.9574 84.8378 31.9574Z" fill="white"/>
<path d="M60.1767 26.0893H34.8575C34.565 26.0893 34.3274 25.8516 34.3274 25.5591V24.2977C34.3274 24.0052 34.565 23.7676 34.8575 23.7676H60.1767C60.4692 23.7676 60.7069 24.0052 60.7069 24.2977V25.5591C60.7069 25.8699 60.4692 26.0893 60.1767 26.0893Z" fill="white"/>
<path d="M84.8383 26.0893H65.0765C64.784 26.0893 64.5464 25.8516 64.5464 25.5591V24.2977C64.5464 24.0052 64.784 23.7676 65.0765 23.7676H84.8383C85.1308 23.7676 85.3685 24.0052 85.3685 24.2977V25.5591C85.3685 25.8699 85.1308 26.0893 84.8383 26.0893Z" fill="white"/>
</g>
<defs>
<clipPath id="clip0_54_1013">
<rect width="99.0648" height="65.318" fill="white" transform="translate(0.197266 0.203125)"/>
</clipPath>
</defs>
</svg>
