<svg width="100" height="118" viewBox="0 0 100 118" fill="none" xmlns="http://www.w3.org/2000/svg">
<g clip-path="url(#clip0_52_247)">
<path d="M99.3349 53.4678H0.618896V117.641H99.3349V53.4678Z" fill="#F5F5F5"/>
<path d="M63.0088 85.9952C64.7319 78.7811 60.2805 71.536 53.0663 69.813C45.8522 68.0899 38.6071 72.5413 36.884 79.7555C35.161 86.9696 39.6124 94.2147 46.8266 95.9378C54.0407 97.6608 61.2858 93.2094 63.0088 85.9952Z" fill="#E0E0E0"/>
<path d="M54.4982 82.8378L50.9965 84.8761L47.4949 86.9143V82.8378V78.8135L50.9965 80.8518L54.4982 82.8378Z" fill="#F5F5F5"/>
<path d="M99.3349 106.144H0.618896V117.693H99.3349V106.144Z" fill="#E0E0E0"/>
<path d="M10.2352 111.893L8.77165 112.729L7.36035 113.565V111.893V110.272L8.77165 111.057L10.2352 111.893Z" fill="#F5F5F5"/>
<path d="M91.1826 111.631H18.3867V112.154H91.1826V111.631Z" fill="#F5F5F5"/>
<path d="M19.8506 111.892C19.8506 112.467 19.3802 112.99 18.753 112.99C18.1257 112.99 17.6553 112.519 17.6553 111.892C17.6553 111.317 18.1257 110.794 18.753 110.794C19.3802 110.794 19.8506 111.317 19.8506 111.892Z" fill="#F5F5F5"/>
<path d="M53.8702 64.2848C53.3999 63.71 53.3476 63.2396 54.3928 63.1874C56.7444 62.9783 58.4689 61.9332 58.7825 61.3583C59.0438 60.7835 58.3121 60.1564 57.685 60.5222C57.1625 60.8358 56.1695 61.0448 55.3857 61.1493C54.7586 61.2538 54.1315 61.2538 53.4521 61.1493C52.8773 61.0448 52.407 60.9925 51.9889 60.888C51.9889 60.888 49.4805 60.3654 48.4353 59.5293L43.1572 65.1732L45.6134 67.9951C45.6134 67.9951 46.8153 69.7719 48.9056 69.5629C51.0482 69.3539 53.8702 67.8384 53.8702 67.8384C54.236 67.2635 57.685 69.3539 58.7825 70.1377C59.8799 70.9216 60.716 70.7126 60.6638 69.981C60.6115 69.4584 57.3192 66.95 56.2218 66.2184C55.647 65.748 54.445 64.9642 53.8702 64.2848Z" fill="#FFBE9D"/>
<path d="M50.7877 69.198C50.7877 69.2502 50.6309 69.3025 50.3696 69.3025C50.1082 69.3025 49.7423 69.198 49.3764 68.9366C49.0628 68.6753 48.8537 68.3616 48.7492 68.1003C48.6446 67.8389 48.6969 67.6821 48.6969 67.6821C48.7492 67.6821 48.906 68.3094 49.481 68.7275C50.1082 69.198 50.7877 69.1457 50.7877 69.198Z" fill="#EB996E"/>
<path d="M52.878 68.3616C52.878 68.4138 52.7212 68.4661 52.4598 68.4138C52.1985 68.4138 51.8326 68.3093 51.519 68.0479C51.2054 67.7866 50.9963 67.473 50.944 67.2116C50.8395 66.9503 50.8917 66.7935 50.8917 66.7935C50.944 66.7935 51.1008 67.3684 51.6758 67.7866C52.2508 68.3093 52.878 68.3093 52.878 68.3616Z" fill="#EB996E"/>
<path d="M58.5735 9.72705C58.7825 14.378 64.4264 20.7013 68.6593 21.7465C70.8542 22.269 73.4148 22.0078 75.1394 23.5232C78.1181 26.0839 76.3936 31.362 78.4316 34.7588C79.6858 36.8491 82.142 37.8943 83.553 39.8801C85.9046 43.1724 84.3368 48.1892 81.1491 50.6453C77.9613 53.1015 73.7284 53.5718 69.7568 53.4673C61.0296 53.2582 52.0412 50.4363 45.7179 44.2698C42.687 41.3433 31.0856 32.3549 35.1618 11.0335" fill="#263238"/>
<path d="M90.1377 42.8591L56.8492 32.9823C54.0795 31.8326 51.9892 31.519 51.9892 31.519L40.7536 31.5713C39.2381 31.5713 37.7749 31.8849 36.4684 32.4597L6.15861 42.5455C3.9115 43.2772 2.34375 45.5765 2.34375 48.1894C2.34375 51.4295 4.69537 54.0424 7.51732 54.0424H21.5226C21.4703 54.1992 21.4703 54.2514 21.4703 54.2514L70.1228 54.4082L88.6745 54.4604C91.5487 54.4604 93.8481 51.7953 93.8481 48.5553C93.9526 45.8901 92.3848 43.5907 90.1377 42.8591Z" fill="#E8505B"/>
<path d="M83.501 46.4645C83.501 46.4645 83.3965 46.4645 83.1875 46.4645C82.9784 46.4645 82.6649 46.4122 82.3513 46.36C81.6197 46.2554 80.5223 46.1509 79.2158 45.9942C76.5507 45.7329 72.8403 45.5238 68.7642 45.5761C64.688 45.6283 60.9777 45.9419 58.3648 46.3077C57.0583 46.4645 55.9609 46.6213 55.2293 46.7258C54.8635 46.778 54.6022 46.8303 54.3931 46.8303C54.1841 46.8303 54.0796 46.8825 54.0796 46.8303C54.0796 46.8303 54.1841 46.778 54.3931 46.778C54.6022 46.7258 54.9157 46.6735 55.2293 46.6213C55.9609 46.4645 57.0583 46.3077 58.3648 46.0987C61.0299 45.7329 64.688 45.3671 68.8164 45.3148C72.8926 45.2625 76.6029 45.5238 79.2681 45.8374C80.5746 45.9942 81.672 46.1509 82.4036 46.2554C82.7694 46.3077 83.0307 46.36 83.2397 46.4122C83.3965 46.4122 83.501 46.4645 83.501 46.4645Z" fill="#263238"/>
<g opacity="0.6">
<path d="M75.6622 38.3652C75.6622 38.3652 75.61 38.4175 75.5577 38.4698C75.5054 38.5743 75.4009 38.6265 75.2441 38.7833C74.9829 39.0446 74.617 39.4627 74.0422 39.933C73.5196 40.4033 72.8403 40.9782 72.0041 41.553C71.168 42.1278 70.1228 42.7027 68.9209 43.0162C67.6667 43.382 66.2035 43.3298 64.7402 42.9117C63.277 42.5459 61.8138 41.762 60.3505 40.9782C58.8873 40.1943 57.3195 39.3059 55.595 38.7311C53.8705 38.1562 51.9369 38.1562 50.1602 38.9923C48.3834 39.7762 46.9201 40.9782 45.3001 41.8666C44.8821 42.0756 44.464 42.2846 44.0459 42.4414C43.6279 42.5982 43.2098 42.7549 42.7917 42.8595C41.9556 43.1208 41.0672 43.2253 40.2311 43.2775C36.8343 43.5388 33.8033 42.4414 31.713 40.9259C30.6678 40.1943 29.8839 39.3582 29.1523 38.6265C28.4207 37.9472 27.7413 37.3723 27.1665 37.0065C25.9645 36.2749 25.1284 36.2749 25.1284 36.2227C25.1284 36.2227 25.3375 36.2227 25.7033 36.2749C26.0691 36.3272 26.5917 36.5362 27.2188 36.902C27.8459 37.2678 28.5252 37.8427 29.2568 38.522C29.9884 39.2014 30.8246 40.0375 31.8175 40.7691C33.8556 42.1801 36.8865 43.2775 40.1788 43.0162C41.0149 42.964 41.8511 42.8072 42.6872 42.5982C43.1053 42.4937 43.5233 42.3369 43.9414 42.1801C44.3595 41.9711 44.7775 41.8143 45.1434 41.6053C46.7634 40.7691 48.2266 39.5672 50.0034 38.7311C51.7802 37.8949 53.8705 37.8427 55.595 38.4698C57.3718 38.9923 58.8873 39.933 60.3505 40.7169C61.8138 41.5007 63.2247 42.2846 64.688 42.6504C66.0989 43.0685 67.5099 43.0685 68.7119 42.7549C69.9138 42.4414 70.959 41.8666 71.7951 41.344C72.6312 40.7691 73.3106 40.2465 73.8332 39.7762C74.3558 39.3059 74.7738 38.9401 75.0351 38.6788C75.1396 38.5743 75.2441 38.4698 75.3487 38.3652C75.61 38.4175 75.6622 38.3652 75.6622 38.3652Z" fill="white"/>
</g>
<g opacity="0.2">
<path d="M23.9785 46.3604L44.9864 50.332L42.5825 54.3036H41.9031L23.9785 46.3604Z" fill="black"/>
</g>
<g opacity="0.6">
<path d="M87.6291 42.2324C87.6291 42.2324 87.6291 42.3369 87.6291 42.546C87.6291 42.755 87.5768 43.0686 87.5246 43.4866C87.3678 44.2705 87.0543 45.4202 86.2704 46.6221C85.4865 47.8241 84.1278 49.026 82.2988 49.6531C81.4104 49.9667 80.3652 50.1757 79.32 50.1234C78.2749 50.0712 77.2297 49.8621 76.1845 49.5486C75.1394 49.235 74.0942 48.9215 73.1013 48.7125C72.1084 48.5034 71.1155 48.4512 70.1748 48.5557C68.2935 48.7647 66.778 49.5486 65.6283 50.437C64.4787 51.2731 63.7993 52.2138 63.3812 52.8931C63.2767 53.0499 63.1722 53.2067 63.1199 53.3634C63.0677 53.468 63.0154 53.6247 62.9632 53.7293C62.8587 53.9383 62.8064 53.9905 62.8064 53.9905C62.8064 53.9905 62.8587 53.886 62.9109 53.677C62.9632 53.5725 63.0154 53.468 63.0677 53.3112C63.1199 53.1544 63.2245 52.9976 63.329 52.8409C63.747 52.1615 64.4264 51.1686 65.5761 50.2802C66.6735 49.3918 68.2935 48.5557 70.1748 48.3466C71.1155 48.2421 72.1606 48.2421 73.1535 48.5034C74.1987 48.7125 75.1916 49.026 76.2368 49.3396C77.282 49.6531 78.3271 49.8621 79.32 49.9144C80.3129 49.9667 81.3058 49.8099 82.1942 49.4963C83.971 48.9215 85.2775 47.7195 86.1136 46.5699C86.9497 45.4202 87.2633 44.2705 87.4201 43.4866C87.6291 42.6505 87.6291 42.2324 87.6291 42.2324Z" fill="white"/>
</g>
<path d="M6.21045 53.3627C6.21045 53.3627 44.2545 70.1377 44.0455 69.7719C43.8364 69.4061 50.1074 58.3795 50.1074 58.3795L19.275 43.1201L6.21045 53.3627Z" fill="#E8505B"/>
<path d="M23.665 45.3149C23.665 45.3149 23.9263 45.4195 24.4489 45.6285C24.9715 45.8898 25.7031 46.2033 26.5392 46.6214C28.316 47.4575 30.7199 48.6595 33.3851 49.9659C36.0503 51.2724 38.4541 52.4743 40.2309 53.3627C41.0671 53.7808 41.7464 54.1466 42.269 54.4079C42.7393 54.6692 43.0006 54.826 43.0006 54.826C43.0006 54.826 42.7393 54.7214 42.2167 54.5124C41.6942 54.2511 40.9625 53.9376 40.1264 53.5195C38.3496 52.6834 35.9457 51.4814 33.2806 50.175C30.6154 48.8685 28.2115 47.6666 26.4347 46.7782C25.5986 46.3601 24.9192 45.9943 24.3967 45.733C23.9263 45.4717 23.665 45.3149 23.665 45.3149Z" fill="#263238"/>
<g opacity="0.6">
<path d="M32.0261 50.3845C32.0261 50.3845 32.0261 50.8026 31.6603 51.5342C31.3468 52.2135 30.6152 53.1542 29.4132 53.7813C28.7861 54.0948 28.1068 54.4084 27.3229 54.5129C26.539 54.6697 25.6506 54.6697 24.7622 54.5652C22.9332 54.3561 21.1042 53.5723 19.2229 52.6839C17.3416 51.7955 15.5648 50.9593 13.8403 50.5413C12.9519 50.3322 12.1157 50.2277 11.3319 50.2277C10.548 50.2277 9.81636 50.3845 9.18926 50.5935C7.93506 51.0116 6.99441 51.691 6.52408 52.2658C6.05376 52.8406 5.84473 53.2064 5.84473 53.2064C5.84473 53.2064 5.94924 52.7884 6.47183 52.2135C6.94215 51.5864 7.83054 50.8548 9.137 50.4368C9.7641 50.2277 10.548 50.0709 11.3319 50.0187C12.1157 49.9664 13.0041 50.0709 13.8925 50.28C15.6693 50.698 17.4983 51.5342 19.3274 52.4226C21.2087 53.311 23.0377 54.0426 24.8145 54.3039C25.7029 54.4084 26.539 54.4084 27.3229 54.3039C28.1068 54.1994 28.7861 53.9381 29.361 53.6245C30.5629 52.9974 31.2945 52.1613 31.6081 51.4819C31.9216 50.8026 31.9739 50.3845 32.0261 50.3845Z" fill="white"/>
</g>
<g opacity="0.6">
<path d="M48.1742 61.8816C48.1742 61.9338 47.3381 61.7771 45.9794 61.7771C45.3 61.7771 44.5161 61.7771 43.5755 61.8816C42.6871 61.9861 41.6942 62.1951 40.7013 62.4564C39.7084 62.7177 38.7677 63.0835 37.9838 63.4493C37.2 63.8151 36.4683 64.2332 35.8935 64.599C34.7438 65.3306 34.1167 65.9055 34.0645 65.8532C34.0645 65.8532 34.2212 65.6964 34.4825 65.4351C34.7438 65.1738 35.2141 64.808 35.789 64.4422C36.3638 64.0242 37.0432 63.6583 37.8793 63.2403C38.7154 62.8745 39.6561 62.4564 40.649 62.1951C41.6419 61.9338 42.6348 61.7248 43.5755 61.6203C44.4639 61.5158 45.3 61.5158 45.9794 61.568C46.6587 61.6203 47.2336 61.6725 47.5994 61.7248C47.9652 61.8293 48.1742 61.8816 48.1742 61.8816Z" fill="white"/>
</g>
<g opacity="0.2">
<path d="M52.8776 31.4668C52.2505 33.2436 53.1912 35.1249 54.1318 36.7449C54.7589 37.8946 55.4383 39.0443 56.3267 39.9326C57.2673 40.8733 58.4692 41.5527 59.7757 41.5004C61.5002 41.4481 63.0157 40.1939 64.7402 40.2985C65.8899 40.3507 66.9351 41.0301 67.8757 41.7094C69.548 42.8591 71.2725 43.9565 73.1538 44.6359C75.0351 45.3153 77.1255 45.5765 79.059 45.0017C80.9926 44.4269 82.7171 42.9114 83.1352 40.9256" fill="black"/>
</g>
<path d="M52.9817 30.9442C53.0863 28.9061 53.1908 27.0248 53.1908 27.0248C53.1908 27.0248 57.7895 26.45 57.9463 21.799C58.1553 17.148 57.685 6.38278 57.685 6.38278L49.2714 2.35889L40.2307 9.67505L41.6417 31.101C41.8507 34.1842 44.5159 36.5358 47.5991 36.3791C50.5256 36.2745 52.8772 33.9229 52.9817 30.9442Z" fill="#FFBE9D"/>
<path d="M56.9014 14.8487C56.9014 15.1623 56.6401 15.476 56.3264 15.476C56.0128 15.476 55.7515 15.2146 55.7515 14.901C55.7515 14.5874 56.0128 14.2737 56.3264 14.2737C56.6401 14.2215 56.9014 14.4828 56.9014 14.8487Z" fill="#263238"/>
<path d="M57.4765 13.5946C57.4243 13.6991 56.9538 13.2809 56.3266 13.2809C55.6994 13.2287 55.2289 13.5946 55.1767 13.49C55.1244 13.4377 55.2289 13.3332 55.438 13.1764C55.6471 13.0196 55.9607 12.915 56.3789 12.915C56.7448 12.915 57.1107 13.1241 57.2675 13.2809C57.4765 13.3855 57.5288 13.5423 57.4765 13.5946Z" fill="#263238"/>
<path d="M54.264 22.9022C54.1667 22.9851 53.6289 22.4153 52.7731 22.1955C51.9304 21.9252 51.1976 22.1147 51.1523 21.9952C51.094 21.9262 51.2626 21.8616 51.5868 21.783C51.9111 21.7043 52.3649 21.7129 52.9354 21.8594C53.4346 21.9876 53.8818 22.3183 54.0567 22.5252C54.316 22.6997 54.3483 22.8699 54.264 22.9022Z" fill="#263238"/>
<path d="M49.9512 14.8487C49.9512 15.1623 49.6899 15.476 49.3762 15.476C49.0626 15.476 48.8013 15.2146 48.8013 14.901C48.8013 14.5874 49.0626 14.2737 49.3762 14.2737C49.6899 14.2215 49.9512 14.4828 49.9512 14.8487Z" fill="#263238"/>
<path d="M50.5264 13.6995C50.4741 13.8041 50.0037 13.3859 49.3764 13.3859C48.7492 13.3336 48.2787 13.6995 48.2265 13.595C48.1742 13.5427 48.2787 13.4382 48.4878 13.2814C48.6969 13.1246 49.0105 13.02 49.4287 13.02C49.7946 13.02 50.1605 13.2291 50.3173 13.3859C50.5264 13.5427 50.5786 13.6995 50.5264 13.6995Z" fill="#263238"/>
<path d="M52.8774 19.0814C52.8774 19.0291 53.2432 18.9769 53.9226 18.9246C54.0794 18.9246 54.2361 18.8724 54.2884 18.7678C54.3406 18.6633 54.2884 18.4543 54.1839 18.2453C54.0271 17.8272 53.8703 17.4091 53.7135 16.9388C53.0864 15.0575 52.6161 13.4897 52.7206 13.4897C52.7729 13.4897 53.3477 14.953 53.9748 16.8343C54.1316 17.3046 54.2884 17.7227 54.3929 18.1407C54.4452 18.3498 54.5497 18.5588 54.4452 18.8201C54.3929 18.9246 54.2884 19.0291 54.1839 19.0814C54.0794 19.1336 53.9748 19.1336 53.9226 19.1336C53.2955 19.1336 52.8774 19.1336 52.8774 19.0814Z" fill="#263238"/>
<path d="M53.1909 27.0766C53.1909 27.0766 50.1076 27.1812 47.1289 25.0908C47.1289 25.0908 48.5399 28.4876 53.0864 28.2263L53.1909 27.0766Z" fill="#EB996E"/>
<path d="M35.3184 14.2741C35.3184 18.298 34.221 29.011 41.5894 30.4742L41.3281 15.7373C41.3281 15.7373 48.4352 12.3928 49.6894 5.39019H49.7417C50.212 6.43536 50.9959 8.73473 50.5256 10.5638L57.2146 12.236L57.9985 12.9154C57.9985 12.9154 60.4024 7.68956 55.8036 2.98631C51.2049 -1.71694 47.2855 1.67985 44.8294 1.3663C43.2094 1.15727 37.5132 1.20953 35.2139 10.9818L35.3184 14.2741Z" fill="#263238"/>
<path d="M41.5375 15.8934C40.9104 15.5276 40.0742 15.8411 39.5516 16.3637C38.7678 17.1998 38.6633 18.5585 39.2381 19.5514C39.8129 20.5444 41.1194 21.0669 42.2168 20.7534" fill="#FFBE9D"/>
<path d="M41.3807 19.396C41.3807 19.4483 41.1716 19.4483 40.858 19.396C40.5444 19.2915 40.0739 19.0824 39.8648 18.5074C39.7603 18.2461 39.8126 17.9847 39.9171 17.7234C40.0217 17.5143 40.1785 17.3575 40.3353 17.253C40.6489 17.0439 40.858 17.0961 40.858 17.0961C40.858 17.1484 40.7012 17.2007 40.4398 17.4098C40.2307 17.6188 40.0217 17.9847 40.1785 18.4029C40.3353 18.8211 40.7012 19.0301 40.9625 19.187C41.1716 19.2915 41.3807 19.3438 41.3807 19.396Z" fill="#EB996E"/>
<path d="M40.7535 20.2832C40.4399 20.3877 40.2308 20.8059 40.4399 21.1195C40.649 21.3809 41.1194 21.3809 41.3285 21.0673C41.4853 20.7536 41.2762 20.3355 40.9626 20.2832" fill="#E8505B"/>
<path d="M54.2881 54.408V46.7783C54.2881 46.7783 42.8958 49.1299 42.6868 54.3558L54.2881 54.408Z" fill="#FFBE9D"/>
<path d="M53.1384 30.1608C53.3475 32.5124 54.3926 34.7595 56.1172 36.3795C57.8417 37.9995 60.141 38.9402 62.4927 38.9924C64.1649 39.0447 65.9417 38.6266 67.5095 39.306C68.8682 39.8808 69.7043 41.1873 70.7495 42.2324C73.2056 44.6363 77.0727 45.4724 80.3128 44.375C81.6715 43.9047 83.8663 42.9118 84.1276 41.5008C84.3366 40.4034 82.9779 39.306 82.1941 38.5221C81.4102 37.7382 80.4173 37.2156 79.3721 36.7453C71.2721 32.9304 62.5449 30.1608 53.5565 29.6904" fill="#263238"/>
</g>
<defs>
<clipPath id="clip0_52_247">
<rect width="98.716" height="117.163" fill="white" transform="translate(0.618896 0.477539)"/>
</clipPath>
</defs>
</svg>
