<svg width="99" height="32" viewBox="0 0 99 32" fill="none" xmlns="http://www.w3.org/2000/svg">
<path d="M46.7732 13.7778H49.511L46.8088 8.6222C48.4621 8.1422 49.4932 6.80887 49.4932 5.04887C49.4932 2.8622 47.9288 1.17331 45.4755 1.17331H40.551V13.7778H43.0221V8.92443H44.3021L46.7732 13.7778ZM43.0221 6.80887V3.30665H45.0132C46.2577 3.30665 46.9866 3.99998 46.9866 5.06665C46.9866 6.09776 46.2577 6.80887 45.0132 6.80887H43.0221Z" fill="#EE2737"/>
<path d="M52.9657 8.40887C53.0191 7.60887 53.6946 6.68443 54.9213 6.68443C56.2724 6.68443 56.8413 7.53776 56.8769 8.40887H52.9657ZM57.108 10.6844C56.8235 11.4666 56.2191 12.0178 55.1169 12.0178C53.9435 12.0178 52.9657 11.1822 52.9124 10.0266H59.1702C59.1702 9.99109 59.2057 9.63554 59.2057 9.29776C59.2057 6.48887 57.588 4.76443 54.8857 4.76443C52.6457 4.76443 50.5835 6.57776 50.5835 9.36887C50.5835 12.32 52.6991 14.0444 55.0991 14.0444C57.2502 14.0444 58.6369 12.7822 59.0813 11.2711L57.108 10.6844Z" fill="#EE2737"/>
<path d="M69.143 5.03109H66.6541L64.5741 10.8978L62.4052 5.03109H59.8096L63.383 13.7778H65.7474L69.143 5.03109Z" fill="#EE2737"/>
<path d="M72.946 13.7778V5.03109H70.5816V13.7778H72.946ZM70.2971 2.16887C70.2971 2.95109 70.9549 3.60887 71.7549 3.60887C72.5727 3.60887 73.2127 2.95109 73.2127 2.16887C73.2127 1.35109 72.5727 0.693314 71.7549 0.693314C70.9549 0.693314 70.2971 1.35109 70.2971 2.16887Z" fill="#EE2737"/>
<path d="M77.2019 8.40887C77.2552 7.60887 77.9307 6.68443 79.1574 6.68443C80.5085 6.68443 81.0774 7.53776 81.113 8.40887H77.2019ZM81.3441 10.6844C81.0596 11.4666 80.4552 12.0178 79.353 12.0178C78.1796 12.0178 77.2019 11.1822 77.1485 10.0266H83.4063C83.4063 9.99109 83.4419 9.63554 83.4419 9.29776C83.4419 6.48887 81.8241 4.76443 79.1219 4.76443C76.8819 4.76443 74.8196 6.57776 74.8196 9.36887C74.8196 12.32 76.9352 14.0444 79.3352 14.0444C81.4863 14.0444 82.873 12.7822 83.3174 11.2711L81.3441 10.6844Z" fill="#EE2737"/>
<path d="M90.1249 5.03109L88.2227 10.6489L86.6049 5.03109H84.116L86.9071 13.7778H89.3071L91.316 7.80443L93.3605 13.7778H95.7249L98.4627 5.03109H96.116L94.4982 10.6666L92.6138 5.03109H90.1249Z" fill="#EE2737"/>
<path d="M46.7732 31.5555H49.511L46.8088 26.4C48.4621 25.92 49.4932 24.5866 49.4932 22.8266C49.4932 20.64 47.9288 18.9511 45.4755 18.9511H40.551V31.5555H43.0221V26.7022H44.3021L46.7732 31.5555ZM43.0221 24.5866V21.0844H45.0132C46.2577 21.0844 46.9866 21.7778 46.9866 22.8444C46.9866 23.8755 46.2577 24.5866 45.0132 24.5866H43.0221Z" fill="#EE2737"/>
<path d="M52.9657 26.1866C53.0191 25.3866 53.6946 24.4622 54.9213 24.4622C56.2724 24.4622 56.8413 25.3155 56.8769 26.1866H52.9657ZM57.108 28.4622C56.8235 29.2444 56.2191 29.7955 55.1169 29.7955C53.9435 29.7955 52.9657 28.96 52.9124 27.8044H59.1702C59.1702 27.7689 59.2057 27.4133 59.2057 27.0755C59.2057 24.2666 57.588 22.5422 54.8857 22.5422C52.6457 22.5422 50.5835 24.3555 50.5835 27.1466C50.5835 30.0978 52.6991 31.8222 55.0991 31.8222C57.2502 31.8222 58.6369 30.56 59.0813 29.0489L57.108 28.4622Z" fill="#EE2737"/>
<path d="M62.7921 26.1866C62.8455 25.3866 63.521 24.4622 64.7477 24.4622C66.0988 24.4622 66.6677 25.3155 66.7032 26.1866H62.7921ZM66.9344 28.4622C66.6499 29.2444 66.0455 29.7955 64.9432 29.7955C63.7699 29.7955 62.7921 28.96 62.7388 27.8044H68.9966C68.9966 27.7689 69.0321 27.4133 69.0321 27.0755C69.0321 24.2666 67.4144 22.5422 64.7121 22.5422C62.4721 22.5422 60.4099 24.3555 60.4099 27.1466C60.4099 30.0978 62.5255 31.8222 64.9255 31.8222C67.0766 31.8222 68.4632 30.56 68.9077 29.0489L66.9344 28.4622Z" fill="#EE2737"/>
<path d="M73.2585 31.5555V18.6844H70.8941V31.5555H73.2585Z" fill="#EE2737"/>
<path d="M75.0432 29.12C75.1499 30.1155 76.0566 31.8222 78.6877 31.8222C80.981 31.8222 82.0832 30.3644 82.0832 28.9422C82.0832 27.6622 81.2121 26.6133 79.4877 26.2578L78.2432 25.9911C77.7632 25.9022 77.4432 25.6355 77.4432 25.2089C77.4432 24.7111 77.941 24.3378 78.5632 24.3378C79.5588 24.3378 79.9321 24.9955 80.0032 25.5111L81.9766 25.0666C81.8699 24.1244 81.0344 22.5422 78.5455 22.5422C76.661 22.5422 75.2744 23.84 75.2744 25.4044C75.2744 26.6311 76.0388 27.6444 77.7277 28.0178L78.8832 28.2844C79.5588 28.4266 79.8255 28.7466 79.8255 29.1378C79.8255 29.6 79.4521 30.0089 78.6699 30.0089C77.6388 30.0089 77.1232 29.3689 77.0699 28.6755L75.0432 29.12Z" fill="#EE2737"/>
<path d="M4.38828 0L5.29788 9.55224H9.28043L8.21726 0H12.6887L13.5707 9.55224H17.451L16.5866 0H20.4929L21.3842 9.55224H25.2358L24.4937 0H28C30.206 0 32 1.794 32 4V31C32 31.376 31.79 31.722 31.454 31.892C31.31 31.964 31.154 32 31 32C30.792 32 30.584 31.934 30.41 31.806L22.474 26H4C1.794 26 0 24.206 0 22V4C0 3.30106 0 1.96773 0 0H4.38828Z" fill="#EE2737"/>
</svg>
