<svg width="189" height="60" viewBox="0 0 189 60" fill="none" xmlns="http://www.w3.org/2000/svg">
<g clip-path="url(#clip0)">
<path d="M47.85 0.306122L52.2 17.602C52.5 18.5203 51.75 19.4387 50.7 19.4387H45.15C44.4 19.4387 43.8 18.9795 43.65 18.2142L39.15 0.153061H32.1L36.45 17.602C36.75 18.5203 36 19.4387 34.95 19.4387H29.4C28.65 19.4387 28.05 18.9795 27.9 18.2142L23.4 0.153061H16.35L20.7 17.4489C21 18.3673 20.25 19.2856 19.2 19.2856H13.65C12.9 19.2856 12.3 18.8264 12.15 18.0611L7.65001 0H0V43.3161C0 46.6834 2.7 49.4385 6 49.4385H44.7L57.6 59.6936C58.65 60.4589 60 59.6936 60 58.4691V6.42854C60 3.06121 57.3 0.306122 54 0.306122H47.85Z" fill="#EE2737"/>
<path d="M89.9262 25.2199H95.1737L89.9943 15.2827C93.1633 14.3575 95.1396 11.7876 95.1396 8.3952C95.1396 4.18047 92.141 0.925186 87.4387 0.925186H78V25.2199H82.7364V15.8652H85.1898L89.9262 25.2199ZM82.7364 11.7876V5.03712H86.5528C88.938 5.03712 90.3351 6.3735 90.3351 8.42947C90.3351 10.4169 88.938 11.7876 86.5528 11.7876H82.7364Z" fill="#EE2737"/>
<path d="M101.795 14.8715C101.898 13.3295 103.192 11.5477 105.544 11.5477C108.133 11.5477 109.224 13.1925 109.292 14.8715H101.795ZM109.735 19.2576C109.19 20.7653 108.031 21.8275 105.918 21.8275C103.67 21.8275 101.795 20.217 101.693 17.9897H113.688C113.688 17.9212 113.756 17.2359 113.756 16.5848C113.756 11.1708 110.655 7.84695 105.476 7.84695C101.182 7.84695 97.2294 11.3421 97.2294 16.7219C97.2294 22.4101 101.284 25.7339 105.884 25.7339C110.007 25.7339 112.665 23.301 113.517 20.3884L109.735 19.2576Z" fill="#EE2737"/>
<path d="M132.802 8.36094H128.032L124.045 19.6688L119.888 8.36094H114.913L121.762 25.2199H126.294L132.802 8.36094Z" fill="#EE2737"/>
<path d="M140.092 25.2199V8.36094H135.56V25.2199H140.092ZM135.015 2.84409C135.015 4.3518 136.275 5.61965 137.809 5.61965C139.376 5.61965 140.603 4.3518 140.603 2.84409C140.603 1.26785 139.376 0 137.809 0C136.275 0 135.015 1.26785 135.015 2.84409Z" fill="#EE2737"/>
<path d="M148.249 14.8715C148.351 13.3295 149.646 11.5477 151.997 11.5477C154.587 11.5477 155.677 13.1925 155.746 14.8715H148.249ZM156.189 19.2576C155.643 20.7653 154.485 21.8275 152.372 21.8275C150.123 21.8275 148.249 20.217 148.147 17.9897H160.141C160.141 17.9212 160.209 17.2359 160.209 16.5848C160.209 11.1708 157.109 7.84695 151.929 7.84695C147.636 7.84695 143.683 11.3421 143.683 16.7219C143.683 22.4101 147.738 25.7339 152.338 25.7339C156.461 25.7339 159.119 23.301 159.971 20.3884L156.189 19.2576Z" fill="#EE2737"/>
<path d="M173.019 8.36094L169.373 19.189L166.272 8.36094H161.502L166.851 25.2199H171.451L175.302 13.7065L179.22 25.2199H183.752L189 8.36094H184.502L181.401 19.2233L177.789 8.36094H173.019Z" fill="#EE2737"/>
<path d="M89.9262 59.486H95.1737L89.9943 49.5488C93.1633 48.6236 95.1396 46.0537 95.1396 42.6613C95.1396 38.4466 92.141 35.1913 87.4387 35.1913H78V59.486H82.7364V50.1314H85.1898L89.9262 59.486ZM82.7364 46.0537V39.3033H86.5528C88.938 39.3033 90.3351 40.6396 90.3351 42.6956C90.3351 44.683 88.938 46.0537 86.5528 46.0537H82.7364Z" fill="#EE2737"/>
<path d="M101.795 49.1376C101.898 47.5957 103.192 45.8138 105.544 45.8138C108.133 45.8138 109.224 47.4586 109.292 49.1376H101.795ZM109.735 53.5237C109.19 55.0314 108.031 56.0937 105.918 56.0937C103.67 56.0937 101.795 54.4832 101.693 52.2559H113.688C113.688 52.1873 113.756 51.502 113.756 50.8509C113.756 45.4369 110.655 42.1131 105.476 42.1131C101.182 42.1131 97.2294 45.6082 97.2294 50.988C97.2294 56.6762 101.284 60 105.884 60C110.007 60 112.665 57.5671 113.517 54.6545L109.735 53.5237Z" fill="#EE2737"/>
<path d="M120.63 49.1376C120.732 47.5957 122.027 45.8138 124.378 45.8138C126.968 45.8138 128.058 47.4586 128.126 49.1376H120.63ZM128.569 53.5237C128.024 55.0314 126.865 56.0937 124.753 56.0937C122.504 56.0937 120.63 54.4832 120.528 52.2559H132.522C132.522 52.1873 132.59 51.502 132.59 50.8509C132.59 45.4369 129.489 42.1131 124.31 42.1131C120.016 42.1131 116.064 45.6082 116.064 50.988C116.064 56.6762 120.119 60 124.719 60C128.842 60 131.5 57.5671 132.352 54.6545L128.569 53.5237Z" fill="#EE2737"/>
<path d="M140.691 59.486V34.6773H136.159V59.486H140.691Z" fill="#EE2737"/>
<path d="M144.112 54.7915C144.316 56.7104 146.054 60 151.097 60C155.493 60 157.605 57.1902 157.605 54.4489C157.605 51.9817 155.936 49.96 152.63 49.2747L150.245 48.7607C149.325 48.5894 148.712 48.0754 148.712 47.253C148.712 46.2935 149.666 45.574 150.858 45.574C152.767 45.574 153.482 46.8418 153.619 47.8355L157.401 46.9789C157.196 45.1628 155.595 42.1131 150.824 42.1131C147.212 42.1131 144.555 44.6145 144.555 47.6299C144.555 49.9943 146.02 51.9475 149.257 52.667L151.472 53.181C152.767 53.4552 153.278 54.072 153.278 54.8258C153.278 55.7167 152.562 56.5049 151.063 56.5049C149.087 56.5049 148.098 55.2713 147.996 53.9349L144.112 54.7915Z" fill="#EE2737"/>
</g>
<defs>
<clipPath id="clip0">
<rect width="189" height="60" fill="white"/>
</clipPath>
</defs>
</svg>
