<svg width="60" height="60" viewBox="0 0 60 60" fill="none" xmlns="http://www.w3.org/2000/svg">
<path d="M47.85 0.306122L52.2 17.602C52.5 18.5203 51.75 19.4387 50.7 19.4387H45.15C44.4 19.4387 43.8 18.9795 43.65 18.2142L39.15 0.153061H32.1L36.45 17.602C36.75 18.5203 36 19.4387 34.95 19.4387H29.4C28.65 19.4387 28.05 18.9795 27.9 18.2142L23.4 0.153061H16.35L20.7 17.4489C21 18.3673 20.25 19.2856 19.2 19.2856H13.65C12.9 19.2856 12.3 18.8264 12.15 18.0611L7.65001 0H0V43.3161C0 46.6834 2.7 49.4385 6 49.4385H44.7L57.6 59.6936C58.65 60.4589 60 59.6936 60 58.4691V6.42854C60 3.06121 57.3 0.306122 54 0.306122H47.85Z" fill="#EE2737"/>
</svg>
