<svg width="218" height="69" viewBox="0 0 218 69" fill="none" xmlns="http://www.w3.org/2000/svg">
<path d="M71.968 64.4395C71.968 64.5355 71.944 64.6075 71.896 64.6555C71.832 64.7035 71.792 64.7355 71.776 64.7515C71.68 64.8315 71.6 64.9355 71.536 65.0635C71.472 65.1915 71.416 65.2875 71.368 65.3515C71.32 65.4155 71.264 65.4315 71.2 65.3995C71.168 65.3835 71.104 65.3435 71.008 65.2795C70.896 65.2155 70.8 65.1355 70.72 65.0395L70.432 64.3435C70.08 63.4635 69.632 62.4715 69.088 61.3675C68.96 61.1435 68.816 60.8475 68.656 60.4795C68.432 59.9995 68.248 59.6635 68.104 59.4715C67.944 59.2635 67.752 59.1675 67.528 59.1835C67.192 59.3115 66.808 59.7435 66.376 60.4795C65.928 61.2155 65.48 62.1755 65.032 63.3595C64.856 63.8555 64.664 64.2715 64.456 64.6075C64.248 64.9275 64.064 65.0875 63.904 65.0875C63.776 65.0875 63.68 65.0075 63.616 64.8475C63.616 64.8155 63.6 64.7355 63.568 64.6075C63.536 64.4635 63.52 64.2875 63.52 64.0795C63.52 63.7275 63.584 63.3355 63.712 62.9035L63.928 62.2555C64.072 61.8235 64.192 61.5115 64.288 61.3195C64.368 61.1115 64.504 60.8955 64.696 60.6715C64.92 60.1435 65.184 59.7035 65.488 59.3515C65.776 58.9995 66.16 58.6395 66.64 58.2715L67.744 57.4555L68.464 57.3355C68.48 57.4635 68.56 57.6555 68.704 57.9115C68.832 58.1675 68.904 58.3115 68.92 58.3435C69.08 58.5675 69.28 58.9035 69.52 59.3515C69.744 59.7995 70.016 60.3675 70.336 61.0555L70.552 61.4875C70.808 62.1595 71.04 62.6555 71.248 62.9755C71.44 63.2955 71.568 63.5195 71.632 63.6475C71.728 63.7755 71.816 63.9195 71.896 64.0795C71.96 64.2235 71.984 64.3275 71.968 64.3915V64.4395Z" fill="black" fill-opacity="0.5"/>
<path d="M6.52 35.76C7.32 35.76 8.01333 35.86 8.6 36.06C9.18667 36.2467 9.69333 36.5133 10.12 36.86C10.96 37.54 11.5067 38.4933 11.76 39.72L9.24 40.18C9.02667 39.5 8.69333 38.9533 8.24 38.54C7.8 38.1133 7.24667 37.9 6.58 37.9C5.67333 37.9 4.94 38.28 4.38 39.04C3.78 39.8667 3.48 41.0133 3.48 42.48C3.48 43.9333 3.74667 45.0733 4.28 45.9C4.81333 46.7133 5.54 47.12 6.46 47.12C7.38 47.12 8.07333 46.9 8.54 46.46C9.00667 46.0067 9.24 45.4267 9.24 44.72H11.78C11.78 46.1733 11.3133 47.3 10.38 48.1C9.46 48.8867 8.19333 49.28 6.58 49.28C4.86 49.28 3.49333 48.68 2.48 47.48C1.45333 46.2533 0.94 44.5867 0.94 42.48C0.94 40.3467 1.46667 38.68 2.52 37.48C3.53333 36.3333 4.86667 35.76 6.52 35.76ZM18.3558 39.02C19.0091 39.02 19.6224 39.1267 20.1958 39.34C20.7691 39.54 21.2624 39.8533 21.6758 40.28C22.5958 41.2133 23.0558 42.5067 23.0558 44.16C23.0558 45.7867 22.5958 47.0667 21.6758 48C20.8491 48.8533 19.7424 49.28 18.3558 49.28C16.9691 49.28 15.8491 48.8533 14.9958 48C14.0758 47.08 13.6158 45.8 13.6158 44.16C13.6158 42.4933 14.0758 41.2 14.9958 40.28C15.8358 39.44 16.9558 39.02 18.3558 39.02ZM20.6958 44.14C20.6958 43.1133 20.4958 42.3467 20.0958 41.84C19.6958 41.32 19.1358 41.06 18.4158 41.06C17.7091 41.06 17.1291 41.32 16.6758 41.84C16.2224 42.3467 15.9958 43.1133 15.9958 44.14C15.9958 45.1667 16.1958 45.94 16.5958 46.46C17.0091 46.9667 17.5691 47.22 18.2758 47.22C18.9824 47.22 19.5624 46.9667 20.0158 46.46C20.4691 45.94 20.6958 45.1667 20.6958 44.14ZM25.8639 35.28H28.2239V49H25.8639V35.28ZM31.9381 35.28H34.2981V49H31.9381V35.28ZM44.7923 40.44C45.1257 40.8667 45.3723 41.36 45.5323 41.92C45.7057 42.48 45.7923 42.9933 45.7923 43.46C45.7923 43.9267 45.7657 44.3467 45.7123 44.72H39.4323C39.459 45.5067 39.6523 46.1467 40.0123 46.64C40.3723 47.1333 40.919 47.38 41.6523 47.38C42.6257 47.38 43.2057 46.9533 43.3923 46.1H45.7723C45.6123 47.0733 45.1657 47.84 44.4323 48.4C43.6723 48.9867 42.7457 49.28 41.6523 49.28C40.3723 49.28 39.299 48.8133 38.4323 47.88C37.539 46.9067 37.0923 45.66 37.0923 44.14C37.0923 42.58 37.539 41.3267 38.4323 40.38C39.2857 39.4733 40.359 39.02 41.6523 39.02C42.999 39.02 44.0457 39.4933 44.7923 40.44ZM41.6723 40.9C41.0057 40.9 40.4857 41.12 40.1123 41.56C39.739 41.9867 39.519 42.54 39.4523 43.22H43.5923C43.5923 42.1667 43.259 41.46 42.5923 41.1C42.339 40.9667 42.0323 40.9 41.6723 40.9ZM52.3178 39.02C52.9311 39.02 53.4778 39.1267 53.9578 39.34C54.4511 39.54 54.8645 39.8067 55.1978 40.14C55.8645 40.78 56.2578 41.5867 56.3778 42.56L53.9978 42.62C53.8911 42.1933 53.6911 41.84 53.3978 41.56C53.1178 41.28 52.7911 41.14 52.4178 41.14C52.0445 41.14 51.7245 41.2 51.4578 41.32C51.1911 41.4267 50.9578 41.6 50.7578 41.84C50.3045 42.4 50.0778 43.1733 50.0778 44.16C50.0778 45.1467 50.2911 45.8933 50.7178 46.4C51.1445 46.8933 51.6578 47.14 52.2578 47.14C52.8711 47.14 53.3111 47 53.5778 46.72C53.8578 46.4267 53.9978 46.0333 53.9978 45.54H56.3778C56.3778 46.6067 56.0245 47.4933 55.3178 48.2C54.5978 48.92 53.5911 49.28 52.2978 49.28C51.0178 49.28 49.9445 48.8133 49.0778 47.88C48.1578 46.88 47.6978 45.6333 47.6978 44.14C47.6978 42.5667 48.1578 41.3067 49.0778 40.36C49.9445 39.4667 51.0245 39.02 52.3178 39.02ZM64.7033 48.76C63.8233 49.1067 63.1299 49.28 62.6233 49.28C62.1166 49.28 61.6699 49.22 61.2833 49.1C60.9099 48.98 60.5766 48.8 60.2833 48.56C59.6699 48.0133 59.3633 47.26 59.3633 46.3V40.86H58.0033V39.28H59.3633V36.72H61.7233V39.28H64.3633V40.86H61.7233V46.22C61.7233 47.02 62.1033 47.42 62.8633 47.42C63.2499 47.42 63.7499 47.3133 64.3633 47.1L64.7033 48.76ZM74.5325 41.2C75.1192 39.8 75.9992 39.1 77.1725 39.1C77.3992 39.1 77.6858 39.1467 78.0325 39.24L77.9925 41.6C77.6192 41.52 77.2525 41.48 76.8925 41.48C75.3192 41.48 74.5325 42.5667 74.5325 44.74V49H72.1725V39.26H74.5325V41.2ZM87.2728 40.44C87.6061 40.8667 87.8528 41.36 88.0128 41.92C88.1861 42.48 88.2728 42.9933 88.2728 43.46C88.2728 43.9267 88.2461 44.3467 88.1928 44.72H81.9128C81.9395 45.5067 82.1328 46.1467 82.4928 46.64C82.8528 47.1333 83.3995 47.38 84.1328 47.38C85.1061 47.38 85.6861 46.9533 85.8728 46.1H88.2528C88.0928 47.0733 87.6461 47.84 86.9128 48.4C86.1528 48.9867 85.2261 49.28 84.1328 49.28C82.8528 49.28 81.7795 48.8133 80.9128 47.88C80.0195 46.9067 79.5728 45.66 79.5728 44.14C79.5728 42.58 80.0195 41.3267 80.9128 40.38C81.7661 39.4733 82.8395 39.02 84.1328 39.02C85.4795 39.02 86.5261 39.4933 87.2728 40.44ZM84.1528 40.9C83.4861 40.9 82.9661 41.12 82.5928 41.56C82.2195 41.9867 81.9995 42.54 81.9328 43.22H86.0728C86.0728 42.1667 85.7395 41.46 85.0728 41.1C84.8195 40.9667 84.5128 40.9 84.1528 40.9ZM92.1983 39.28L94.4183 46.66L96.6583 39.28H99.3783L95.7583 49H93.0983L89.4783 39.28H92.1983ZM101.669 39.26H104.029V49H101.669V39.26ZM101.389 36.14C101.389 35.7133 101.516 35.38 101.769 35.14C102.023 34.8867 102.383 34.76 102.849 34.76C103.303 34.76 103.656 34.8867 103.909 35.14C104.176 35.38 104.309 35.7133 104.309 36.14C104.309 36.5667 104.176 36.9067 103.909 37.16C103.656 37.4 103.303 37.52 102.849 37.52C102.383 37.52 102.023 37.4 101.769 37.16C101.516 36.9067 101.389 36.5667 101.389 36.14ZM114.812 40.44C115.145 40.8667 115.392 41.36 115.552 41.92C115.725 42.48 115.812 42.9933 115.812 43.46C115.812 43.9267 115.785 44.3467 115.732 44.72H109.452C109.479 45.5067 109.672 46.1467 110.032 46.64C110.392 47.1333 110.939 47.38 111.672 47.38C112.645 47.38 113.225 46.9533 113.412 46.1H115.792C115.632 47.0733 115.185 47.84 114.452 48.4C113.692 48.9867 112.765 49.28 111.672 49.28C110.392 49.28 109.319 48.8133 108.452 47.88C107.559 46.9067 107.112 45.66 107.112 44.14C107.112 42.58 107.559 41.3267 108.452 40.38C109.305 39.4733 110.379 39.02 111.672 39.02C113.019 39.02 114.065 39.4933 114.812 40.44ZM111.692 40.9C111.025 40.9 110.505 41.12 110.132 41.56C109.759 41.9867 109.539 42.54 109.472 43.22H113.612C113.612 42.1667 113.279 41.46 112.612 41.1C112.359 40.9667 112.052 40.9 111.692 40.9ZM119.497 39.28L121.457 46.22L123.317 39.82H125.457L127.317 46.24L129.297 39.28H131.657L128.457 49H126.137L124.337 43.18L122.577 49H120.237L117.017 39.28H119.497ZM135.114 46.04C135.14 46.96 135.814 47.42 137.134 47.42C137.64 47.42 138.054 47.3133 138.374 47.1C138.707 46.8733 138.874 46.6133 138.874 46.32C138.874 46.0267 138.774 45.8 138.574 45.64C138.374 45.48 138.06 45.3333 137.634 45.2L135.514 44.44C133.94 43.8933 133.154 43 133.154 41.76C133.154 40.9333 133.52 40.2733 134.254 39.78C135 39.2733 135.994 39.02 137.234 39.02C138.487 39.02 139.447 39.2933 140.114 39.84C140.794 40.3867 141.147 41.0733 141.174 41.9H138.954C138.927 41.58 138.774 41.3267 138.494 41.14C138.214 40.9533 137.814 40.86 137.294 40.86C136.774 40.86 136.367 40.9667 136.074 41.18C135.794 41.38 135.654 41.6133 135.654 41.88C135.654 42.3467 136.047 42.6933 136.834 42.92L139.134 43.78C139.894 44.0333 140.474 44.36 140.874 44.76C141.287 45.1467 141.494 45.6533 141.494 46.28C141.494 47.08 141.114 47.7733 140.354 48.36C139.567 48.9733 138.527 49.28 137.234 49.28C135.94 49.28 134.9 49 134.114 48.44C133.327 47.8667 132.927 47.0667 132.914 46.04H135.114ZM155.499 47.74C155.019 48.7667 154.192 49.28 153.019 49.28C151.766 49.28 150.712 48.8267 149.859 47.92C148.939 46.96 148.479 45.7 148.479 44.14C148.479 42.6067 148.926 41.3533 149.819 40.38C150.659 39.4733 151.686 39.02 152.899 39.02C153.499 39.02 154.052 39.1667 154.559 39.46C155.079 39.74 155.499 40.18 155.819 40.78L156.339 39.28H157.879V50.5C157.879 51.0733 157.946 51.4533 158.079 51.64C158.226 51.8267 158.386 51.96 158.559 52.04C158.732 52.1333 158.946 52.22 159.199 52.3L158.519 54.02C157.426 53.7533 156.646 53.3267 156.179 52.74C155.726 52.1533 155.499 51.3467 155.499 50.32V47.74ZM155.499 43.44C155.499 42.7067 155.286 42.14 154.859 41.74C154.432 41.34 153.886 41.14 153.219 41.14C152.566 41.14 152.006 41.4067 151.539 41.94C151.086 42.4733 150.859 43.2067 150.859 44.14C150.859 45.0867 151.126 45.84 151.659 46.4C152.126 46.8933 152.692 47.14 153.359 47.14C153.906 47.14 154.386 46.9733 154.799 46.64C155.239 46.2667 155.472 45.78 155.499 45.18V43.44ZM168.066 47.24C167.453 48.5333 166.466 49.18 165.106 49.18C163.386 49.18 162.253 48.5067 161.706 47.16C161.506 46.6933 161.406 46.1267 161.406 45.46V39.26H163.766V45.22C163.766 45.86 163.919 46.34 164.226 46.66C164.533 46.9667 164.906 47.12 165.346 47.12C165.799 47.12 166.179 47.06 166.486 46.94C166.793 46.8067 167.059 46.6133 167.286 46.36C167.779 45.7867 168.039 45.02 168.066 44.06V39.26H170.426V49H168.066V47.24ZM174.345 39.26H176.705V49H174.345V39.26ZM174.065 36.14C174.065 35.7133 174.192 35.38 174.445 35.14C174.698 34.8867 175.058 34.76 175.525 34.76C175.978 34.76 176.332 34.8867 176.585 35.14C176.852 35.38 176.985 35.7133 176.985 36.14C176.985 36.5667 176.852 36.9067 176.585 37.16C176.332 37.4 175.978 37.52 175.525 37.52C175.058 37.52 174.698 37.4 174.445 37.16C174.192 36.9067 174.065 36.5667 174.065 36.14ZM184.408 39.02C185.021 39.02 185.568 39.1267 186.048 39.34C186.541 39.54 186.954 39.8067 187.288 40.14C187.954 40.78 188.348 41.5867 188.468 42.56L186.088 42.62C185.981 42.1933 185.781 41.84 185.488 41.56C185.208 41.28 184.881 41.14 184.508 41.14C184.134 41.14 183.814 41.2 183.548 41.32C183.281 41.4267 183.048 41.6 182.848 41.84C182.394 42.4 182.168 43.1733 182.168 44.16C182.168 45.1467 182.381 45.8933 182.808 46.4C183.234 46.8933 183.748 47.14 184.348 47.14C184.961 47.14 185.401 47 185.668 46.72C185.948 46.4267 186.088 46.0333 186.088 45.54H188.468C188.468 46.6067 188.114 47.4933 187.408 48.2C186.688 48.92 185.681 49.28 184.388 49.28C183.108 49.28 182.034 48.8133 181.168 47.88C180.248 46.88 179.788 45.6333 179.788 44.14C179.788 42.5667 180.248 41.3067 181.168 40.36C182.034 39.4667 183.114 39.02 184.408 39.02ZM194.753 44.26L193.673 45.16V49H191.313V35.28H193.673V42.7L197.513 39.28H200.713L196.413 42.88L200.953 49H198.073L194.753 44.26ZM202.817 35.28H205.177V49H202.817V35.28ZM210.091 39.28L212.431 46.28L214.471 39.28H216.871L213.151 50.76C212.765 51.92 212.291 52.7533 211.731 53.26C211.185 53.7667 210.485 54.02 209.631 54.02C208.765 54.02 207.898 53.8067 207.031 53.38V51.3C207.725 51.74 208.425 51.96 209.131 51.96C209.598 51.96 209.978 51.7733 210.271 51.4C210.578 51.0267 210.825 50.54 211.011 49.94L211.311 49L207.411 39.28H210.091Z" fill="black" fill-opacity="0.8"/>
<path d="M42.4897 22.104C42.1777 21.9827 41.8744 21.8093 41.5797 21.584C41.285 21.3413 41.0857 21.1333 40.9817 20.96C40.9817 20.9253 40.9817 20.8647 40.9817 20.778C40.9817 20.6913 41.0077 20.6393 41.0597 20.622C41.1117 20.5873 41.207 20.57 41.3457 20.57C41.6404 20.57 42.1084 20.6047 42.7497 20.674C43.131 20.674 43.5644 20.6307 44.0497 20.544C44.535 20.44 44.8037 20.3273 44.8557 20.206C44.9077 20.206 44.9337 20.1973 44.9337 20.18C44.9337 20.1453 44.8644 20.0587 44.7257 19.92C44.691 19.92 44.613 19.894 44.4917 19.842C44.3704 19.7727 44.2924 19.738 44.2577 19.738C44.2577 19.6687 44.1797 19.582 44.0237 19.478C43.8677 19.3567 43.6944 19.2527 43.5037 19.166C43.001 18.75 42.6457 18.4467 42.4377 18.256C42.2297 18.048 42.1517 17.9007 42.2037 17.814V17.684C42.0824 17.684 41.9437 17.5193 41.7877 17.19C41.649 16.8433 41.5797 16.5227 41.5797 16.228C41.5797 15.916 41.7097 15.4827 41.9697 14.928C42.247 14.3733 42.559 13.9227 42.9057 13.576C43.391 13.1253 44.015 12.6487 44.7777 12.146C45.5577 11.6433 46.173 11.3227 46.6237 11.184C46.9184 11.0627 47.213 11.002 47.5077 11.002C47.785 11.002 48.019 11.0627 48.2097 11.184C48.435 11.3227 48.6517 11.522 48.8597 11.782C49.085 12.042 49.2324 12.276 49.3017 12.484C49.3017 12.8653 49.2584 13.238 49.1717 13.602C49.1024 13.9487 48.9897 14.122 48.8337 14.122C48.8164 14.122 48.7904 14.1307 48.7557 14.148C48.721 14.1653 48.7037 14.2087 48.7037 14.278C48.7037 14.3473 48.669 14.4427 48.5997 14.564C48.5304 14.668 48.435 14.772 48.3137 14.876C47.9324 15.1533 47.6204 15.292 47.3777 15.292C47.187 15.292 47.0657 15.1967 47.0137 15.006C46.979 14.9713 46.9444 14.9193 46.9097 14.85C46.875 14.7807 46.8317 14.746 46.7797 14.746C46.7624 14.746 46.7277 14.72 46.6757 14.668C46.641 14.5987 46.6237 14.512 46.6237 14.408C46.6237 14.356 46.641 14.304 46.6757 14.252C46.7277 14.1827 46.7624 14.1393 46.7797 14.122C46.8837 14.122 47.057 13.9227 47.2997 13.524C47.5424 13.108 47.6637 12.8307 47.6637 12.692C47.6637 12.588 47.6464 12.5273 47.6117 12.51C47.5944 12.4927 47.5164 12.484 47.3777 12.484C46.0257 13.0907 45.185 13.55 44.8557 13.862C44.8037 13.966 44.7604 14.0353 44.7257 14.07C44.7084 14.1047 44.665 14.122 44.5957 14.122C44.5957 13.966 44.1364 14.5553 43.2177 15.89C43.183 15.9247 43.1397 16.0287 43.0877 16.202C43.053 16.3753 43.0357 16.5227 43.0357 16.644C43.001 16.7827 42.9837 16.8607 42.9837 16.878C42.9837 16.9473 43.0097 17.0167 43.0617 17.086C43.131 17.1553 43.2177 17.2333 43.3217 17.32C43.4257 17.3893 43.5297 17.4673 43.6337 17.554C44.535 18.23 45.159 18.7413 45.5057 19.088C45.8697 19.4173 46.0864 19.6947 46.1557 19.92C46.381 20.2667 46.4937 20.5787 46.4937 20.856C46.4937 21.064 46.4157 21.246 46.2597 21.402C46.1037 21.558 45.8697 21.7053 45.5577 21.844C45.367 21.9307 45.0464 22 44.5957 22.052C44.145 22.1213 43.703 22.156 43.2697 22.156C43.027 22.156 42.767 22.1387 42.4897 22.104ZM57.955 21.194C57.695 21.3327 57.4177 21.402 57.123 21.402C56.6897 21.402 56.3344 21.2113 56.057 20.83C55.797 20.4487 55.667 19.9373 55.667 19.296C55.667 19.0013 55.7277 18.516 55.849 17.84C55.9704 17.1467 56.109 16.5747 56.265 16.124C56.2824 16.0893 56.3084 16.02 56.343 15.916C56.3777 15.812 56.3864 15.7427 56.369 15.708C56.369 15.656 56.3517 15.63 56.317 15.63C56.2304 15.63 56.0744 15.7427 55.849 15.968C55.3637 16.384 54.8437 16.9127 54.289 17.554C53.7344 18.178 53.275 18.7847 52.911 19.374C52.547 19.946 52.365 20.3447 52.365 20.57C52.365 20.7607 52.287 20.908 52.131 21.012C51.9924 21.116 51.8277 21.168 51.637 21.168C51.5157 21.168 51.403 21.142 51.299 21.09C51.039 20.934 50.857 20.7607 50.753 20.57C50.6664 20.3793 50.623 20.102 50.623 19.738C50.623 19.4433 50.6317 19.2093 50.649 19.036C50.7184 17.84 50.8397 16.7913 51.013 15.89C51.2037 14.9713 51.559 13.6713 52.079 11.99C52.0964 11.938 52.261 11.496 52.573 10.664C53.1104 9.13867 53.4137 8.30667 53.483 8.168C53.6044 8.04667 53.7777 7.674 54.003 7.05C54.2457 6.40867 54.367 6.01867 54.367 5.88C54.367 5.62 54.4537 5.40333 54.627 5.23L54.887 4.97C55.043 4.97 55.225 5.03933 55.433 5.178C55.641 5.29933 55.771 5.44667 55.823 5.62C55.9444 5.84533 56.005 6.088 56.005 6.348C56.005 6.59067 55.927 6.894 55.771 7.258C55.6324 7.60467 55.3897 8.116 55.043 8.792C54.5404 9.79733 54.0724 10.95 53.639 12.25C53.4484 12.8047 53.1797 13.6713 52.833 14.85C52.5037 16.0113 52.339 16.6873 52.339 16.878C52.339 16.9993 52.3997 17.06 52.521 17.06C52.6597 17.06 52.807 16.956 52.963 16.748C53.0324 16.6093 53.3617 16.2713 53.951 15.734C54.0204 15.6647 54.4104 15.3093 55.121 14.668C55.8317 14.0093 56.343 13.68 56.655 13.68C56.863 13.68 57.0624 13.758 57.253 13.914C57.461 14.07 57.5997 14.252 57.669 14.46C57.7384 14.5293 57.7904 14.5987 57.825 14.668C57.8597 14.7373 57.8944 14.7893 57.929 14.824C57.9637 14.8587 57.981 14.9627 57.981 15.136C57.981 15.7427 57.7904 16.618 57.409 17.762C57.1144 18.906 56.967 19.5907 56.967 19.816C56.967 19.972 57.0104 20.05 57.097 20.05C57.149 20.0153 57.253 19.9547 57.409 19.868C57.565 19.7813 57.747 19.6773 57.955 19.556C58.5444 19.1573 59.0644 18.958 59.515 18.958C59.723 18.958 59.827 19.0273 59.827 19.166C59.827 19.2007 59.801 19.2613 59.749 19.348C59.697 19.4347 59.671 19.504 59.671 19.556V19.686C59.671 19.7727 59.437 20.0327 58.969 20.466C58.501 20.8993 58.163 21.142 57.955 21.194ZM63.3657 21.61C63.1577 21.61 62.993 21.5753 62.8717 21.506C62.7503 21.4367 62.577 21.3067 62.3517 21.116C61.7797 20.5093 61.4937 19.9547 61.4937 19.452C61.4937 19.3307 61.5023 19.244 61.5197 19.192C61.5717 19.0707 61.589 18.9493 61.5717 18.828C61.5717 18.7067 61.5717 18.6287 61.5717 18.594C61.5023 18.5247 61.4677 18.4813 61.4677 18.464C61.4677 18.4293 61.485 18.4033 61.5197 18.386C61.5543 18.3513 61.5803 18.3167 61.5977 18.282C61.7017 18.282 61.7363 18.1867 61.7017 17.996C61.667 17.8573 61.7363 17.554 61.9097 17.086C62.083 16.6007 62.2997 16.1587 62.5597 15.76C62.7503 15.448 63.0277 15.058 63.3917 14.59C63.773 14.122 64.111 13.7667 64.4057 13.524C64.8217 13.16 65.1943 12.8913 65.5237 12.718C65.853 12.5447 66.217 12.4147 66.6157 12.328C66.9623 12.2413 67.1963 12.198 67.3177 12.198C67.439 12.198 67.543 12.2327 67.6297 12.302C67.7337 12.354 67.8637 12.458 68.0197 12.614C68.4877 12.822 68.8083 13.0907 68.9817 13.42C69.1723 13.732 69.2677 14.226 69.2677 14.902C69.2677 16.0287 68.8083 17.2507 67.8897 18.568C67.491 19.14 67.1183 19.582 66.7717 19.894C66.425 20.1887 65.9657 20.5093 65.3937 20.856C65.0297 21.116 64.6917 21.3067 64.3797 21.428C64.085 21.532 63.747 21.5927 63.3657 21.61ZM65.8617 18.854C66.2777 18.386 66.607 17.944 66.8497 17.528C67.1097 17.112 67.3523 16.5833 67.5777 15.942C67.6643 15.6473 67.7077 15.292 67.7077 14.876C67.7077 14.356 67.6383 14.0613 67.4997 13.992C67.3263 13.9053 67.153 13.862 66.9797 13.862C66.5983 13.862 66.1997 14.0353 65.7837 14.382C65.281 14.8153 64.8303 15.3527 64.4317 15.994C64.033 16.618 63.6257 17.398 63.2097 18.334C63.0363 18.698 62.9497 19.0533 62.9497 19.4C62.9497 19.66 63.0103 19.868 63.1317 20.024C63.2703 20.18 63.4523 20.258 63.6777 20.258C64.2497 20.258 64.9777 19.79 65.8617 18.854ZM72.0377 21.402C71.9684 21.5233 71.8817 21.584 71.7777 21.584C71.6737 21.584 71.561 21.5493 71.4397 21.48C71.3357 21.4107 71.275 21.3673 71.2577 21.35C70.9977 21.35 70.833 21.2113 70.7637 20.934C70.7464 20.8993 70.7377 20.8213 70.7377 20.7C70.7377 20.4747 70.8417 20.0327 71.0497 19.374L71.2317 18.542C71.405 17.7793 71.561 17.138 71.6997 16.618C71.7517 16.5313 71.8557 16.2367 72.0117 15.734C72.1157 15.3527 72.2544 14.98 72.4277 14.616C72.6357 13.836 72.965 13.0647 73.4157 12.302C73.4504 12.25 73.5197 12.1807 73.6237 12.094C73.7277 12.0073 73.8057 11.964 73.8577 11.964C73.9617 11.86 74.0744 11.808 74.1957 11.808C74.317 11.808 74.473 11.886 74.6637 12.042C74.837 12.25 74.9237 12.4493 74.9237 12.64C74.9237 12.9693 74.707 13.4633 74.2737 14.122L73.8577 15.136C73.823 15.2227 73.7364 15.4307 73.5977 15.76C73.459 16.072 73.3724 16.358 73.3377 16.618C73.563 16.306 73.9704 15.8553 74.5597 15.266C74.9064 14.9193 75.1924 14.668 75.4177 14.512C75.643 14.3387 75.9724 14.1133 76.4057 13.836C76.7177 13.6107 76.995 13.446 77.2377 13.342C77.4804 13.238 77.749 13.186 78.0437 13.186C78.1997 13.186 78.321 13.1947 78.4077 13.212C78.6504 13.1947 78.841 13.316 78.9797 13.576C79.1184 13.836 79.205 14.174 79.2397 14.59C79.0317 14.5553 78.8844 14.538 78.7977 14.538C78.451 14.538 78.139 14.6073 77.8617 14.746C77.6017 14.8847 77.385 15.0233 77.2117 15.162C77.0384 15.2833 76.9257 15.3613 76.8737 15.396C75.9377 16.0027 75.2097 16.5747 74.6897 17.112C74.1524 17.7013 73.771 18.1347 73.5457 18.412C73.3377 18.6893 73.1817 18.9667 73.0777 19.244C73.0257 19.3653 72.8784 19.7293 72.6357 20.336C72.393 20.9253 72.1937 21.2807 72.0377 21.402ZM82.1608 21.818C81.8835 21.766 81.5975 21.584 81.3028 21.272C81.0255 20.9427 80.8435 20.6393 80.7568 20.362C80.7568 20.3273 80.7395 20.2927 80.7048 20.258C80.6702 20.206 80.6442 20.1713 80.6268 20.154C80.5575 20.102 80.5228 19.816 80.5228 19.296C80.5228 18.88 80.5402 18.4467 80.5748 17.996C80.6268 17.5453 80.6875 17.1813 80.7568 16.904L81.2248 15.526L81.5888 14.486L82.2908 12.978L81.2508 12.692C81.1295 12.6747 81.0255 12.614 80.9388 12.51C80.8695 12.406 80.8348 12.3107 80.8348 12.224C80.8348 12.0853 80.9042 11.9207 81.0428 11.73C81.1988 11.522 81.3202 11.418 81.4068 11.418C81.4588 11.4353 81.5975 11.444 81.8228 11.444C82.3428 11.444 82.7328 11.418 82.9928 11.366C83.1662 11.2967 83.2875 11.158 83.3568 10.95C83.4262 10.8113 83.5042 10.638 83.5908 10.43C83.6948 10.222 83.7902 10.0313 83.8768 9.858C83.9288 9.754 84.0068 9.598 84.1108 9.39C84.2322 9.16467 84.3795 8.91333 84.5528 8.636C84.5875 8.584 84.6655 8.46267 84.7868 8.272C84.9082 8.064 85.0555 7.89067 85.2288 7.752C85.3502 7.63067 85.4975 7.57 85.6708 7.57C85.8442 7.57 86.0695 7.68267 86.3468 7.908C86.3815 7.96 86.4248 8.02933 86.4768 8.116C86.5462 8.20267 86.5808 8.28067 86.5808 8.35C86.5808 8.41933 86.5115 8.56667 86.3728 8.792C86.2688 9 86.1648 9.19067 86.0608 9.364C85.9742 9.52 85.8962 9.65867 85.8268 9.78C85.6188 10.1267 85.4715 10.3867 85.3848 10.56C85.2115 10.7853 85.1248 10.9587 85.1248 11.08C85.1248 11.2013 85.2375 11.262 85.4628 11.262C85.7055 11.262 86.1128 11.21 86.6848 11.106C86.9275 11.0713 87.0922 11.054 87.1788 11.054C87.7855 11.054 88.1148 11.3053 88.1668 11.808C88.1842 11.912 88.1928 12.0333 88.1928 12.172C88.1928 12.4147 88.1062 12.562 87.9328 12.614C87.7768 12.666 87.4128 12.692 86.8408 12.692C86.2862 12.7787 85.7142 12.822 85.1248 12.822C85.0208 12.822 84.8995 12.8307 84.7608 12.848C84.6395 12.848 84.5095 12.8653 84.3708 12.9C84.2322 12.9347 84.1282 12.9867 84.0588 13.056C84.0068 13.1253 83.9462 13.238 83.8768 13.394C83.8248 13.446 83.7035 13.6453 83.5128 13.992C83.2702 14.4947 83.1142 14.798 83.0448 14.902C82.5768 16.2887 82.2302 17.71 82.0048 19.166C81.9702 19.4433 81.9528 19.6167 81.9528 19.686C81.9528 19.946 82.0395 20.128 82.2128 20.232C82.3862 20.336 82.6808 20.388 83.0968 20.388C83.6862 20.388 84.1975 20.3273 84.6308 20.206C85.1508 19.9807 85.5408 19.79 85.8008 19.634C85.9568 19.5473 86.0955 19.4693 86.2168 19.4C86.3555 19.3133 86.4508 19.2527 86.5028 19.218C86.5548 19.114 86.6155 19.062 86.6848 19.062C86.8235 19.062 86.9448 19.2007 87.0488 19.478C87.0488 19.7553 86.9882 19.998 86.8668 20.206C86.7455 20.414 86.4422 20.6567 85.9568 20.934C84.9515 21.5753 83.9462 21.896 82.9408 21.896C82.6635 21.896 82.4035 21.87 82.1608 21.818ZM97.6631 21.168C97.4898 21.2893 97.3771 21.35 97.3251 21.35C97.2558 21.35 97.1171 21.246 96.9091 21.038C96.5971 20.726 96.3718 20.1453 96.2331 19.296C96.0945 18.4293 96.0251 17.1813 96.0251 15.552C96.1118 14.616 96.1551 13.7233 96.1551 12.874C96.2071 12.8047 96.3111 12.77 96.4671 12.77C96.6405 12.77 96.7878 12.8047 96.9091 12.874C97.0825 12.9607 97.1951 13.0907 97.2471 13.264C97.3165 13.4373 97.3598 13.7753 97.3771 14.278C97.3945 14.7807 97.4031 15.422 97.4031 16.202C97.3511 16.8953 97.3251 17.502 97.3251 18.022C97.3251 18.5073 97.3511 18.7933 97.4031 18.88C97.4725 19.0013 97.5505 19.036 97.6371 18.984C97.7238 18.932 97.9058 18.7673 98.1831 18.49L99.1971 16.956C99.2838 16.8693 99.4398 16.6613 99.6651 16.332L100.081 15.812C100.133 15.7253 100.22 15.604 100.341 15.448C100.48 15.2747 100.566 15.1447 100.601 15.058C100.792 14.746 100.991 14.4773 101.199 14.252C101.407 14.0267 101.546 13.914 101.615 13.914C101.684 13.9487 101.728 13.966 101.745 13.966C101.78 13.966 101.823 13.9573 101.875 13.94C101.927 13.9227 101.97 13.914 102.005 13.914C102.074 13.8447 102.144 13.81 102.213 13.81C102.317 13.81 102.412 13.8447 102.499 13.914C102.672 14.0527 102.759 14.174 102.759 14.278C102.759 14.4167 102.62 14.7373 102.343 15.24C102.066 15.7253 101.866 16.0027 101.745 16.072L101.485 16.332C101.433 16.5573 101.112 17.0687 100.523 17.866C99.9511 18.6633 99.3791 19.426 98.8071 20.154C98.6338 20.3793 98.4345 20.5873 98.2091 20.778C98.0011 20.9687 97.8191 21.0987 97.6631 21.168ZM107.909 10.82C107.857 10.872 107.805 10.898 107.753 10.898C107.683 10.898 107.571 10.846 107.415 10.742C107.241 10.7247 107.007 10.5773 106.713 10.3C106.435 10.0053 106.297 9.81467 106.297 9.728C106.262 9.38133 106.314 9.00867 106.453 8.61C106.591 8.21133 106.843 8.00333 107.207 7.986C107.259 7.986 107.328 8.00333 107.415 8.038C107.501 8.05533 107.649 8.10733 107.857 8.194C107.891 8.26333 107.961 8.41067 108.065 8.636C108.186 8.86133 108.273 9.078 108.325 9.286C108.394 9.494 108.429 9.68467 108.429 9.858C108.429 10.274 108.255 10.5947 107.909 10.82ZM104.971 21.194C104.711 21.194 104.477 21.0293 104.269 20.7C104.078 20.3707 103.965 20.0413 103.931 19.712C104 19.0533 104.052 18.5853 104.087 18.308C104.225 17.6667 104.442 16.7913 104.737 15.682C105.049 14.5553 105.239 13.9227 105.309 13.784C105.361 13.6973 105.439 13.654 105.543 13.654C105.647 13.654 105.759 13.6887 105.881 13.758C106.002 13.8273 106.106 13.9053 106.193 13.992C106.331 14.1827 106.401 14.3993 106.401 14.642C106.401 15.006 106.227 15.7687 105.881 16.93C105.638 17.7967 105.482 18.412 105.413 18.776C105.343 19.14 105.317 19.53 105.335 19.946C105.317 20.0673 105.283 20.2753 105.231 20.57C105.196 20.8473 105.161 21.0207 105.127 21.09C105.092 21.1593 105.04 21.194 104.971 21.194ZM114.266 21.922C114.145 21.974 114.041 22 113.954 22C113.885 22 113.798 21.9653 113.694 21.896C113.59 21.8267 113.46 21.7313 113.304 21.61C113.183 21.4193 113.105 21.246 113.07 21.09C113.053 20.934 113.044 20.622 113.044 20.154C113.096 19.6687 113.295 18.8107 113.642 17.58C113.989 16.332 114.24 15.526 114.396 15.162C114.465 14.9367 114.5 14.746 114.5 14.59C114.5 14.4513 114.457 14.3647 114.37 14.33C114.283 14.278 114.11 14.2347 113.85 14.2C113.209 14.1307 112.611 14.33 112.056 14.798C111.519 15.266 110.938 15.994 110.314 16.982C109.759 17.8487 109.482 18.6027 109.482 19.244C109.482 19.3653 109.499 19.478 109.534 19.582C109.586 19.7207 109.725 19.79 109.95 19.79C110.106 19.79 110.297 19.7553 110.522 19.686C110.765 19.6167 110.973 19.53 111.146 19.426C111.25 19.374 111.579 19.2267 112.134 18.984C112.238 18.984 112.307 19.0187 112.342 19.088C112.394 19.14 112.42 19.2527 112.42 19.426C112.42 19.5647 112.507 19.6687 112.68 19.738C112.749 19.8247 112.645 19.9893 112.368 20.232C112.091 20.4573 111.683 20.726 111.146 21.038C110.713 21.1593 110.323 21.22 109.976 21.22C109.629 21.22 109.291 21.1073 108.962 20.882C108.39 20.5527 108.104 19.9633 108.104 19.114C108.104 18.542 108.251 17.8313 108.546 16.982C108.841 16.2887 109.161 15.708 109.508 15.24C109.872 14.7547 110.34 14.2173 110.912 13.628C110.999 13.5413 111.172 13.4287 111.432 13.29C111.709 13.134 112.013 13.004 112.342 12.9C112.897 12.7267 113.356 12.64 113.72 12.64C114.032 12.64 114.309 12.718 114.552 12.874L114.89 12.926C115.029 12.926 115.133 12.8653 115.202 12.744C115.289 12.6227 115.419 12.3453 115.592 11.912L116.242 10.196C116.381 9.832 116.589 9.27733 116.866 8.532C117.161 7.78667 117.429 7.128 117.672 6.556C117.793 6.33067 117.889 6.09666 117.958 5.854C118.045 5.61133 118.114 5.464 118.166 5.412H118.66C118.747 5.412 118.877 5.48133 119.05 5.62C119.223 5.74133 119.336 5.89733 119.388 6.088C119.388 6.27867 119.31 6.65133 119.154 7.206C118.998 7.74333 118.781 8.34133 118.504 9C118.365 9.34667 118.253 9.60667 118.166 9.78C117.559 11.2187 117.143 12.2933 116.918 13.004L116.45 14.2C116.242 14.6333 116.121 14.954 116.086 15.162C115.965 15.6647 115.826 16.1067 115.67 16.488C115.514 16.852 115.427 17.06 115.41 17.112L115.176 17.814C114.881 18.6633 114.682 19.2613 114.578 19.608C114.491 19.9373 114.448 20.2753 114.448 20.622C114.448 20.9687 114.465 21.2547 114.5 21.48C114.5 21.6707 114.422 21.818 114.266 21.922ZM120.495 21.376C119.941 21.1507 119.551 20.8647 119.325 20.518C119.1 20.154 118.987 19.6513 118.987 19.01C118.987 18.698 119.013 18.334 119.065 17.918L119.117 16.982C119.117 16.826 119.1 16.7047 119.065 16.618C119.031 16.5313 118.953 16.436 118.831 16.332C118.797 16.2973 118.71 16.2107 118.571 16.072C118.433 15.9333 118.372 15.8207 118.389 15.734L118.363 15.604C118.363 15.4827 118.381 15.37 118.415 15.266C118.467 15.162 118.519 15.11 118.571 15.11C118.623 15.11 118.693 15.1013 118.779 15.084C118.866 15.0493 118.944 15.0407 119.013 15.058C119.256 15.058 119.377 15.11 119.377 15.214C119.447 15.3527 119.559 15.37 119.715 15.266C119.889 15.1447 120.053 14.9193 120.209 14.59C120.452 14.2087 120.807 13.81 121.275 13.394C121.761 12.9607 122.159 12.6573 122.471 12.484C122.593 12.4147 122.792 12.354 123.069 12.302C123.347 12.2327 123.589 12.198 123.797 12.198C124.109 12.198 124.378 12.2673 124.603 12.406C124.846 12.5447 125.089 12.744 125.331 13.004C125.661 13.2467 125.825 13.628 125.825 14.148C125.825 14.512 125.739 14.8847 125.565 15.266C125.496 15.526 125.219 15.8553 124.733 16.254C124.265 16.6527 123.832 16.93 123.433 17.086C122.948 17.2073 122.393 17.268 121.769 17.268C121.353 17.268 121.085 17.2333 120.963 17.164C120.755 17.0427 120.608 17.5107 120.521 18.568C120.504 18.6893 120.495 18.854 120.495 19.062C120.495 19.3567 120.539 19.5907 120.625 19.764C120.643 19.7813 120.703 19.8507 120.807 19.972C120.911 20.076 121.041 20.1713 121.197 20.258C121.353 20.3273 121.518 20.362 121.691 20.362C121.847 20.362 121.969 20.3447 122.055 20.31C122.246 20.258 122.428 20.1627 122.601 20.024C122.775 19.868 123.017 19.634 123.329 19.322C123.607 19.0447 123.806 18.854 123.927 18.75C124.014 18.594 124.187 18.516 124.447 18.516C124.517 18.516 124.638 18.5333 124.811 18.568C124.967 18.6893 125.045 18.8193 125.045 18.958C125.045 19.0967 124.959 19.3567 124.785 19.738C124.699 19.9113 124.482 20.154 124.135 20.466C123.806 20.7607 123.511 20.9947 123.251 21.168C122.714 21.4627 122.177 21.61 121.639 21.61C121.31 21.61 120.929 21.532 120.495 21.376ZM122.029 16.098C122.203 16.0633 122.454 16.02 122.783 15.968C123.113 15.916 123.381 15.8033 123.589 15.63C123.815 15.4393 124.075 15.1187 124.369 14.668C124.421 14.5293 124.447 14.3907 124.447 14.252C124.447 13.992 124.395 13.81 124.291 13.706C124.17 13.5847 124.031 13.524 123.875 13.524C123.633 13.524 123.381 13.628 123.121 13.836C122.948 13.888 122.688 14.0787 122.341 14.408C122.012 14.7373 121.726 15.0667 121.483 15.396C121.241 15.708 121.163 15.89 121.249 15.942C121.215 15.994 121.301 16.0373 121.509 16.072C121.717 16.0893 121.891 16.098 122.029 16.098ZM128.924 21.61C128.716 21.61 128.552 21.5753 128.43 21.506C128.309 21.4367 128.136 21.3067 127.91 21.116C127.338 20.5093 127.052 19.9547 127.052 19.452C127.052 19.3307 127.061 19.244 127.078 19.192C127.13 19.0707 127.148 18.9493 127.13 18.828C127.13 18.7067 127.13 18.6287 127.13 18.594C127.061 18.5247 127.026 18.4813 127.026 18.464C127.026 18.4293 127.044 18.4033 127.078 18.386C127.113 18.3513 127.139 18.3167 127.156 18.282C127.26 18.282 127.295 18.1867 127.26 17.996C127.226 17.8573 127.295 17.554 127.468 17.086C127.642 16.6007 127.858 16.1587 128.118 15.76C128.309 15.448 128.586 15.058 128.95 14.59C129.332 14.122 129.67 13.7667 129.964 13.524C130.38 13.16 130.753 12.8913 131.082 12.718C131.412 12.5447 131.776 12.4147 132.174 12.328C132.521 12.2413 132.755 12.198 132.876 12.198C132.998 12.198 133.102 12.2327 133.188 12.302C133.292 12.354 133.422 12.458 133.578 12.614C134.046 12.822 134.367 13.0907 134.54 13.42C134.731 13.732 134.826 14.226 134.826 14.902C134.826 16.0287 134.367 17.2507 133.448 18.568C133.05 19.14 132.677 19.582 132.33 19.894C131.984 20.1887 131.524 20.5093 130.952 20.856C130.588 21.116 130.25 21.3067 129.938 21.428C129.644 21.532 129.306 21.5927 128.924 21.61ZM131.42 18.854C131.836 18.386 132.166 17.944 132.408 17.528C132.668 17.112 132.911 16.5833 133.136 15.942C133.223 15.6473 133.266 15.292 133.266 14.876C133.266 14.356 133.197 14.0613 133.058 13.992C132.885 13.9053 132.712 13.862 132.538 13.862C132.157 13.862 131.758 14.0353 131.342 14.382C130.84 14.8153 130.389 15.3527 129.99 15.994C129.592 16.618 129.184 17.398 128.768 18.334C128.595 18.698 128.508 19.0533 128.508 19.4C128.508 19.66 128.569 19.868 128.69 20.024C128.829 20.18 129.011 20.258 129.236 20.258C129.808 20.258 130.536 19.79 131.42 18.854Z" fill="black" fill-opacity="0.5"/>
</svg>
