<svg width="32" height="32" viewBox="0 0 32 32" fill="none" xmlns="http://www.w3.org/2000/svg">
<path d="M24 13.9734V8.00004C24 6.53337 22.8 5.33337 21.3334 5.33337H5.33335C3.86669 5.33337 2.66669 6.53337 2.66669 8.00004V24C2.66669 25.4667 3.86669 26.6667 5.33335 26.6667H21.3334C22.8 26.6667 24 25.4667 24 24V18.0267L28.2 22.2C28.6134 22.6267 29.3334 22.32 29.3334 21.7334V10.2667C29.3334 9.68004 28.6134 9.37337 28.2 9.80004L24 13.9734ZM13.3334 10.6667C14.8 10.6667 16 11.8667 16 13.3334C16 14.8 14.8 16 13.3334 16C11.8667 16 10.6667 14.8 10.6667 13.3334C10.6667 11.8667 11.8667 10.6667 13.3334 10.6667ZM18.6667 21.3334H8.00002V20.5734C8.00002 19.4934 8.64002 18.5334 9.62669 18.1067C10.76 17.6134 12.0134 17.3334 13.3334 17.3334C14.6534 17.3334 15.9067 17.6134 17.04 18.1067C18.0267 18.5334 18.6667 19.4934 18.6667 20.5734V21.3334Z" fill="black"/>
</svg>
